
<svg xmlns="http://www.w3.org/2000/svg" width="1838.414" height="1838.209" viewBox="0 0 1838.414 1838.209">
  <defs>
    <style>
      .cls-1 {
        fill: #fff;
      }

      .cls-2 {
        fill: #1c80b3;
      }
    </style>
  </defs>
  <g id="Group_1118" data-name="Group 1118" transform="translate(-1000.793 -829)">
    <circle id="Ellipse_42" data-name="Ellipse 42" class="cls-1" cx="832.5" cy="832.5" r="832.5" transform="translate(1129.441 947.852)"/>
    <g id="LOGO-FANAMPIANA-NEW" transform="translate(999.529 2667.567)">
      <path id="Path_696" data-name="Path 696" class="cls-2" d="M876.5-1838c-212.7,10.9-407.2,90.4-567.5,231.8-31.1,27.4-71.4,69.4-99.5,103.7C44.2-1301.3-27.2-1040.7,11.6-780.7,45.1-556.4,164.3-348.5,342-205.1,538.1-46.7,785.2,23.6,1036-7.6c182.2-22.6,354.8-100.7,493.3-223.2,129.4-114.4,225.3-265.1,273.2-429.2,37.1-126.8,46.5-258.6,27.9-390.5-19.6-139.5-72.9-275.2-153.8-392A924.176,924.176,0,0,0,1393-1708.3c-123.3-74-259.3-117-406-128.2C962.6-1838.4,900.4-1839.2,876.5-1838ZM1299-1424.6c31.8,5.1,59.9,14.8,82,28.5,36.1,22.5,67.6,61.5,85.4,105.9,9.9,24.6,9.1,27.5-2.7,9.9-25.7-38.3-57.4-60.2-99.2-68.4-12.2-2.4-40.9-2.4-55,.1-72.4,12.4-136.3,54.3-208.6,136.6-7.5,8.5-26.6,31.2-42.4,50.5-15.9,19.2-31,37.5-33.7,40.4-2.6,3-4.8,6.3-4.8,7.4,0,3.7,44.7,22.9,84.3,36.2,33.3,11.2,58.6,17.3,86.2,21.1,15.9,2.2,53.1,2.5,67.7.5,51.2-6.7,93.1-27.2,122.9-60.2,15.6-17.2,24.3-35.7,28.4-60.8,2.1-12.5,1.6-36.4-.9-48-7.4-33.9-25.5-61-52.8-79.4-9.4-6.3-30-16.5-39-19.3-3.2-1-5.8-2.1-5.8-2.5,0-1,11.1-2.8,23.9-3.9,18.7-1.7,40.9,1.5,59.3,8.6q20.85,7.95,42.6,33.8c17.4,20.8,27.8,41.1,34.1,66.6,4.3,17.8,5.4,29.1,4.8,49.8-.4,15.6-.8,19.1-3.6,29.6a226.206,226.206,0,0,1-39.8,81.7c-9.6,12.7-36.2,39-48.9,48.5-11,8.2-30.3,19.9-45.1,27.3-64.7,32.2-141.5,41.8-215.8,27-42.6-8.5-80.4-22.1-147-52.9-12.1-5.6-23.2-10.4-24.7-10.7a7.519,7.519,0,0,0-5.1,1c-1.3.8-7.8,9.1-14.4,18.4-31.1,43.4-58.8,73.8-94.3,103.5-72.5,60.6-163.2,101.1-251.5,112.5-17.4,2.2-66.9,2.5-81,.5-40.2-5.7-70.6-17.5-98.5-38-9.8-7.3-28.4-25.5-37-36.2-13.2-16.6-28.3-42.1-34.6-58.5-3.2-8.3-7.5-22.7-7-23.2.2-.2,3.3,4,6.9,9.4,7.9,11.9,24.7,30.6,34.8,38.9,37.4,30.8,79.1,39.8,133.7,28.8,47.5-9.5,94.4-35.2,140.4-76.7,11.3-10.3,37.4-36.6,48.8-49.2,17.5-19.4,57.8-68.7,72-88,4-5.5,9.3-12.4,11.7-15.3l4.5-5.2-5.9-2.6c-30.7-13.7-73-30-95.6-36.8-27.3-8.3-66.1-16.2-83.6-17.2a70.509,70.509,0,0,1-10.1-.9c-1.6-1-40,1.6-53.2,3.5-15,2.3-25.8,5.3-44.6,12.6-30.2,11.7-53.6,27.6-69.4,47.3-24,30-33.8,64.8-27.9,99q10.8,62.85,63.7,93.5c9.8,5.7,24.9,12.3,31.5,13.8,2.7.6,4.9,1.5,4.9,1.9,0,3.4-39.8,6.3-54.9,4-22.9-3.6-42.7-12.6-57.3-26-18.2-16.7-38.2-47.9-46.3-72.5-14-42.2-9.8-87,12.6-133.6q34.65-71.85,117.4-112.5c48.5-23.9,88.1-32.8,148.4-33.4,22.1-.2,26.5,0,42.6,2.4,43.3,6.2,72.3,14.2,117.6,32.4,29.3,11.7,40.8,16.6,61.7,26.3l17.3,8.1,1.7-2.4c2.6-3.8,19.5-23.8,35.8-42.4,18-20.6,54.7-57.5,70.4-70.8,50-42.2,103.1-73.7,161.5-95.9,34.2-13,77.2-23,112.5-26.2C1242.5-1427.4,1288.9-1426.2,1299-1424.6ZM479.5-667.5c12.2,7.6,12.8,23.5,1.2,32.9l-3.9,3.1-49.9.3-49.9.3V-566h48.4c31.8,0,49.4.4,51.3,1.1,3.8,1.4,9.2,6.7,10.9,10.6,1.7,3.8,1.8,11.1.3,15-1.4,3.8-6.7,9.2-10.6,10.9-2.6,1.1-12.7,1.4-51.7,1.4H377.1l-.3,45.4-.3,45.4-3.1,3.8c-8.6,10.6-24.8,10.2-32.1-.8l-2.8-4.2-.3-108.5L338-654.4l2.5-5.3a19.089,19.089,0,0,1,12.9-10.4c1.7-.4,29.7-.7,62.2-.6l59.1.2ZM623.7-552.6c1.5,1.3,17.2,21.1,34.8,44l32,41.6.5-40.3c.5-36.3.7-40.5,2.3-42.8a11.064,11.064,0,0,1,19.1,1.5c1.4,3,1.6,9.6,1.6,58.8,0,33.5-.4,56.7-1,58.9-2,7.3-9.6,10.8-15.5,7.1-1.7-1-17.9-21.2-36-44.8l-33-42.9-.5,41.6c-.5,45.2-.3,43.5-6.3,46.6-4,2-8.7,1-12.3-2.8l-2.9-3-.3-58c-.2-52.3-.1-58.3,1.4-61.5C610.7-555,618.5-557,623.7-552.6Zm262.6-.3c1.5,1.1,10.4,12.7,19.8,25.7,9.5,13,17.9,24.5,18.9,25.5,1.5,1.7,2.7.3,20.9-24.7,11-14.9,20.4-26.9,21.8-27.5,6.2-2.8,13.3.7,15.3,7.7.6,2.3,1,24.2,1,58.5,0,58.5,0,58.8-5,63.2-1.5,1.4-3.6,2-6.6,2-3.6,0-4.9-.6-7.6-3.3l-3.3-3.2-.5-39.9-.5-39.9-12,16.6c-14.9,20.7-16.4,22.2-22,22.2a10.785,10.785,0,0,1-6.6-1.9c-1.3-1.1-8.2-10-15.4-19.9l-13-17.9L891-469c-.5,44.7-.3,43-6.9,45.7-4.3,1.8-8.1.9-11.7-2.8l-2.9-3-.3-58.2c-.2-43.4.1-58.9.9-61.1C872.7-554.4,881.4-556.9,886.3-552.9Zm177,1.3c11,5.6,19.4,17.2,21.8,30.1,3,16.1-6.2,33-21.9,40.7l-6.6,3.3-18.8.3-18.7.4-.3,24-.3,24-3.3,2.9c-4.5,4-9.9,4-14.4,0l-3.3-2.9v-59.5c0-58.1,0-59.5,2-61.7,4.2-4.7,6.3-5,33-4.7l25,.2Zm56.8-.5,2.9,2.9v120.4l-2.9,2.9c-2.4,2.4-3.8,2.9-7.6,2.9s-5.2-.5-7.6-2.9l-2.9-2.9V-549.2l2.9-2.9c2.4-2.4,3.8-2.9,7.6-2.9S1117.7-554.5,1120.1-552.1Zm181.6-.5c1.5,1.3,17.2,21.1,34.8,44l32,41.6.5-40.3c.5-36.3.7-40.5,2.3-42.8a11.064,11.064,0,0,1,19.1,1.5c1.4,3,1.6,9.6,1.6,58.8,0,33.5-.4,56.7-1,58.9-2,7.3-9.6,10.8-15.5,7.1-1.7-1-17.9-21.2-36-44.8l-33-42.9-.5,41.6c-.5,45.2-.3,43.5-6.3,46.6-4,2-8.7,1-12.3-2.8l-2.9-3-.3-58c-.2-52.3-.1-58.3,1.4-61.5C1288.7-555,1296.5-557,1301.7-552.6Zm-768.1,1.7c.9.7,14.4,26.9,30,58.1,29,58,30.1,60.7,27.4,65.9-1.3,2.4-6.1,4.9-9.5,4.9-6,0-8-2.3-16-18l-7.6-15H498.4L492-440.9c-7.2,15.8-9.9,18.9-15.9,18.9-4.9,0-8.7-3-10.2-8-1.1-3.8-.9-4.4,25.1-60.7,28.9-62.7,29-62.9,36.6-62A14.209,14.209,0,0,1,533.6-550.9Zm263,0c.9.7,14.4,26.9,30,58.1,29,58,30.1,60.7,27.4,65.9-1.3,2.4-6.1,4.9-9.5,4.9-6,0-8-2.3-16-18l-7.6-15H761.4L755-440.9c-7.2,15.8-9.9,18.9-15.9,18.9-4.9,0-8.7-3-10.2-8-1.1-3.8-.9-4.4,25.1-60.7,28.9-62.7,29-62.9,36.6-62A14.209,14.209,0,0,1,796.6-550.9Zm415,0c.9.7,14.4,26.9,30,58.1,29,58,30.1,60.7,27.4,65.9-1.3,2.4-6.1,4.9-9.5,4.9-6,0-8-2.3-16-18l-7.6-15h-59.5l-6.4,14.1c-7.2,15.8-9.9,18.9-15.9,18.9-4.9,0-8.7-3-10.2-8-1.1-3.8-.9-4.4,25.1-60.7,28.9-62.7,29-62.9,36.6-62A14.208,14.208,0,0,1,1211.6-550.9Zm263,0c.9.7,14.4,26.9,30,58.1,29,58,30.1,60.7,27.4,65.9-1.3,2.4-6.1,4.9-9.5,4.9-6,0-8-2.3-16-18l-7.6-15h-59.5l-6.4,14.1c-7.2,15.8-9.9,18.9-15.9,18.9-4.9,0-8.7-3-10.2-8-1.1-3.8-.9-4.4,25.1-60.7,28.9-62.7,29-62.9,36.6-62A14.208,14.208,0,0,1,1474.6-550.9Z"/>
      <path id="Path_697" data-name="Path 697" class="cls-2" d="M1019-516.1V-498h14.8c14.2,0,15.1-.1,20.3-2.8,6.2-3.1,9.9-8.4,9.9-14.3,0-5-4.3-12.9-8.7-15.9-3.5-2.4-4.5-2.5-20-2.8l-16.3-.3Z"/>
      <path id="Path_698" data-name="Path 698" class="cls-2" d="M522.5-506.5c-2.6,5.5-6.9,14.6-9.5,20.2L508.1-476h19.5c10.7,0,19.4-.3,19.3-.8,0-.4-4.4-9.5-9.9-20.2l-9.8-19.5Z"/>
      <path id="Path_699" data-name="Path 699" class="cls-2" d="M785.5-506.5c-2.6,5.5-6.9,14.6-9.5,20.2L771.1-476h19.5c10.7,0,19.4-.3,19.3-.8,0-.4-4.4-9.5-9.9-20.2l-9.8-19.5Z"/>
      <path id="Path_700" data-name="Path 700" class="cls-2" d="M1200.5-506.5c-2.6,5.5-6.9,14.6-9.5,20.2l-4.9,10.3h19.5c10.7,0,19.4-.3,19.3-.8,0-.4-4.4-9.5-9.9-20.2l-9.8-19.5Z"/>
      <path id="Path_701" data-name="Path 701" class="cls-2" d="M1463.5-506.5c-2.6,5.5-6.9,14.6-9.5,20.2l-4.9,10.3h19.5c10.7,0,19.4-.3,19.3-.8,0-.4-4.4-9.5-9.9-20.2l-9.8-19.5Z"/>
    </g>
  </g>
</svg>
